<?xml version="1.0" encoding="utf-8"?>
<!-- Generator: Adobe Illustrator 25.2.1, SVG Export Plug-In . SVG Version: 6.00 Build 0)  -->
<svg version="1.1" id="Layer_2" xmlns="http://www.w3.org/2000/svg" xmlns:xlink="http://www.w3.org/1999/xlink" x="0px" y="0px"
	 viewBox="0 0 95.9 69" style="enable-background:new 0 0 95.9 69;" xml:space="preserve">
<style type="text/css">
	.st0{fill:#437168;}
	.st1{fill:#E4C575;}
</style>
<g>
	<g>
		<path class="st0" d="M94.7,56.1c-0.8,1.4-1.9,2.3-3.3,2.9c-2.2,1-4.6,1.2-7,1.1c-2.7-0.1-5.4-0.3-8.1-0.5
			c-3.4-0.2-6.8-0.4-10.2-0.6c-2.8-0.2-5.7-0.3-8.5-0.5c-3.3-0.2-6.5-0.4-9.8-0.6c-1.3-0.1-2.6-0.2-3.9-0.3c-0.2,0-0.4,0.1-0.6,0.2
			c-7.2,3.7-14.5,7.3-21.7,11c-0.1,0.1-0.2,0.1-0.5,0.2c1-2.1,2-4.2,2.9-6.3c1-2.1,1.9-4.1,2.9-6.2c-2.3-0.1-4.6-0.3-6.9-0.4
			c-3-0.2-6.1-0.4-9.1-0.6c-1.4-0.1-2.8-0.1-4.2-0.3c-1.9-0.2-3.4-1.1-4.5-2.6c-1.5-2-2-4.2-2.1-6.6c-0.1-1.5,0.2-2.9,0.4-4.4
			c0.2-2,0.5-4.1,0.7-6.1c0.3-2.3,0.5-4.5,0.8-6.8c0.3-2.3,0.5-4.5,0.8-6.8c0.2-1.5,0.2-3.1,0.7-4.6c1.3-3.8,4-6.2,7.9-7
			c5-1,9.9-1.8,14.9-2.6c4.3-0.7,8.7-1.4,13-2c4.7-0.7,9.4-1.4,14.1-2.1c4.1-0.6,8.1-1.2,12.2-1.8c3.8-0.6,7.7-1.1,11.5-1.6
			c2-0.3,4-0.3,6,0.2c2.2,0.6,3.8,1.9,4.9,3.8c1,1.8,1.4,3.7,1.7,5.7c0.5,3.5,1.1,7,1.6,10.4c0.5,3.4,1.1,6.9,1.6,10.3
			c0.6,3.8,1.2,7.6,1.8,11.3c0.4,2.6,0.9,5.2,1.1,7.9C96,52.1,95.8,54.1,94.7,56.1z"/>
	</g>
	<g>
		<path class="st1" d="M35.6,26.2c0-0.3-0.1-0.4-0.4-0.4c-0.3,0-0.7,0-1,0c-0.5,0-0.9,0.2-1.2,0.7c-0.1,0.2-0.1,0.2-0.3,0.1
			c-1.2-0.9-2.5-1.1-3.9-1c-1.7,0.2-3,0.9-3.9,2.3c-1,1.4-1.2,3-0.9,4.7c0.6,3,3.1,4.5,5.9,4.4c1,0,1.9-0.4,2.7-1
			c0.2-0.1,0.3-0.1,0.4,0.1c0.2,0.4,0.6,0.6,1,0.6c0.4,0,0.8,0,1.2,0c0.4,0,0.5-0.1,0.5-0.5c0-1.7,0-3.3,0-5
			C35.6,29.6,35.6,27.9,35.6,26.2z M29.7,34c-1.5,0.1-2.7-1.3-2.7-2.9c0.1-1.5,1.2-2.6,2.8-2.6c1.5,0,2.7,1.2,2.6,2.8
			C32.5,32.9,31.3,34,29.7,34z"/>
		<path class="st1" d="M63.1,25.7c-3.2,0.7-4.8,3.6-4.3,6.6c0.5,3.1,3.2,5.1,6.2,4.7c2.2-0.3,3.7-1.4,4.5-3.4
			c0.1-0.3,0.1-0.4-0.2-0.4c-0.9,0-1.8,0-2.7,0c-0.1,0-0.3,0-0.4,0.1c-0.6,0.7-1.4,0.9-2.2,0.8c-1-0.1-1.9-0.9-2-1.9
			c0.2,0,0.3,0,0.5,0c2.3,0,4.7,0,7,0c0.3,0,0.4,0,0.4-0.3c0.1-0.5,0-1,0-1.4C69.5,27,66.3,25,63.1,25.7z M66.4,30
			c-0.7,0-1.4,0-2.1,0c-0.7,0-1.3,0-2,0c-0.3,0-0.3-0.1-0.2-0.3c0.4-0.9,1.2-1.4,2.3-1.4c0.9,0,1.8,0.6,2.2,1.4
			C66.7,29.9,66.7,30,66.4,30z"/>
		<path class="st1" d="M47.5,28.8c-0.4-1.9-1.9-3.2-3.8-3.2c-1.3,0-2.5,0.4-3.5,1.4c-0.5-1-1.3-1.2-2.3-1.2c-0.3,0-0.4,0.1-0.4,0.4
			c0,3.4,0,6.7,0,10.1c0,0.3,0.1,0.4,0.4,0.4c0.8,0,1.5,0,2.3,0c0.4,0,0.5-0.1,0.5-0.5c0-1.8,0-3.6,0-5.4c0-0.7,0.2-1.3,0.6-1.8
			c0.5-0.7,1.3-0.7,2.1-0.6c0.7,0.1,1,0.7,1.1,1.3c0.1,0.3,0.1,0.7,0.1,1.1c0,1.8,0,3.7,0,5.5c0,0.3,0.1,0.4,0.4,0.4
			c0.8,0,1.6,0,2.4,0c0.3,0,0.4-0.1,0.4-0.4c0-1.9,0-3.8,0-5.8C47.7,30,47.6,29.4,47.5,28.8z"/>
		<path class="st1" d="M57.6,33.7c-1.2,0-2.3,0-3.5,0c-0.4,0-0.4-0.1-0.2-0.4c1.2-2.1,2.4-4.1,3.7-6.2c0.2-0.3,0.3-0.6,0.4-0.9
			c0-0.2,0-0.4-0.3-0.4c-2.6,0-5.3,0-7.9,0c-0.2,0-0.3,0.1-0.3,0.3c0,0.7,0,1.4,0,2.1c0,0.4,0.1,0.5,0.5,0.5c1.1,0,2.2,0,3.4,0
			c-0.1,0.2-0.1,0.2-0.2,0.3c-1.1,1.9-2.3,3.9-3.4,5.8c-0.2,0.4-0.5,0.8-0.7,1.3c-0.1,0.4,0,0.5,0.3,0.5c2.8,0,5.5,0,8.3,0
			c0.3,0,0.4-0.1,0.4-0.4c0-0.7,0-1.5,0-2.2C58,33.8,57.9,33.7,57.6,33.7z"/>
		<path class="st1" d="M23.6,25.8c-0.8,0-1.7,0-2.5,0c-0.3,0-0.4,0.1-0.5,0.3c-0.3,0.9-0.6,1.8-1,2.7c-0.4,1.2-0.9,2.4-1.3,3.7
			c-0.8-2.2-1.6-4.3-2.3-6.4c-0.1-0.3-0.2-0.3-0.5-0.3c-0.9,0-1.7,0-2.6,0c-0.4,0-0.4,0.1-0.2,0.4c1.4,3.4,2.8,6.8,4.1,10.1
			c0.1,0.2,0.2,0.3,0.5,0.3c0.7,0,1.4,0,2.1,0c0.3,0,0.4-0.1,0.5-0.4c1.3-3.4,2.7-6.8,4-10.1C24,25.9,23.9,25.8,23.6,25.8z"/>
		<path class="st1" d="M81.2,24.3c0.1,0,0.3,0,0.5,0c0.3,0,0.3-0.1,0.3-0.3c0-0.6,0-1.3,0-1.9c0-0.2-0.1-0.3-0.3-0.3
			c-0.4,0-0.9,0-1.3,0c-0.8,0.1-1.6,0.3-2.2,1c-0.7,0.8-0.9,1.7-0.9,2.8c0,0.3,0,0.4-0.3,0.4c-0.5,0.1-0.9,0.4-1.1,0.9
			c-0.2,0.5-0.2,1.1-0.1,1.6c0.1,0.3,0.7,0.1,1,0.1c0,0,0.1,0,0.1,0c0.3,0,0.4,0.1,0.4,0.4c0,1.2,0,2.5,0,3.7c0,1.3,0,2.5,0,3.8
			c0,0.3,0.1,0.4,0.4,0.4c0.8,0,1.7,0,2.5,0c0.3,0,0.3-0.1,0.3-0.3c0-0.9,0-1.8,0-2.8c0-1.6,0-3.1,0-4.7c0-0.3,0.1-0.4,0.4-0.4
			c0.3,0,0.5,0,0.8,0c0.2,0,0.3-0.1,0.3-0.3c0-0.7,0-1.4,0-2.1c0-0.2-0.1-0.3-0.3-0.3c-0.3,0-0.7,0-1,0c-0.1,0-0.2,0-0.3-0.1
			C80.1,25.3,80.6,24.4,81.2,24.3z"/>
		<path class="st1" d="M74.2,22c-0.8,0-1.5,0-2.3,0c-0.4,0-0.5,0.1-0.5,0.5c0,2.3,0,4.6,0,6.8c0,2.3,0,4.6,0,7
			c0,0.3,0.1,0.4,0.4,0.4c0.8,0,1.6,0,2.4,0c0.3,0,0.4-0.1,0.4-0.3c0-4.7,0-9.3,0-14C74.5,22.1,74.4,22,74.2,22z"/>
	</g>
</g>
</svg>
